<svg xmlns="http://www.w3.org/2000/svg" width="88" height="11" viewBox="0 0 88 11"><g><g><g><g><text dominant-baseline="text-before-edge" style="line-height:20px" fill="#c7b299" font-family="'Montserrat','Montserrat-Light'" font-size="14" font-style="none" font-weight="lighter"><tspan style="font-kerning:normal">Read More</tspan></text></g></g><g><path d="M83.951 10.815l3.834-3.467a.462.462 0 0 0 0-.7l-.02-.011-3.814-3.46a.595.595 0 0 0-.777 0l-.004.007a.47.47 0 0 0-.167.354v6.918c0 .141.068.268.173.358l-.002.001a.594.594 0 0 0 .777 0z"/><path fill="#c7b299" d="M83.951 10.815l3.834-3.467a.462.462 0 0 0 0-.7l-.02-.011-3.814-3.46a.595.595 0 0 0-.777 0l-.004.007a.47.47 0 0 0-.167.354v6.918c0 .141.068.268.173.358l-.002.001a.594.594 0 0 0 .777 0z"/></g></g></g></svg>