<?xml version="1.0" encoding="iso-8859-1"?>
<!-- Generator: Adobe Illustrator 19.0.0, SVG Export Plug-In . SVG Version: 6.00 Build 0)  -->
<svg version="1.1" id="Capa_1" xmlns="http://www.w3.org/2000/svg" xmlns:xlink="http://www.w3.org/1999/xlink" x="0px" y="0px"
	 viewBox="0 0 512 512" style="enable-background:new 0 0 512 512;" xml:space="preserve">
<g>
	<g>
		<path d="M385.77,247.226v100.444h51.231c6.711,0,12.622-4.408,14.538-10.839l26.687-89.605H385.77z"/>
	</g>
</g>
<g>
	<g>
		<rect x="253.305" y="116.444" width="102.135" height="100.446"/>
	</g>
</g>
<g>
	<g>
		<path d="M508.992,122.547c-2.863-3.84-7.371-6.102-12.16-6.102H385.77v100.444h101.49l24.108-80.947
			C512.736,131.353,511.854,126.386,508.992,122.547z"/>
	</g>
</g>
<g>
	<g>
		<rect x="253.305" y="247.227" width="102.135" height="100.446"/>
	</g>
</g>
<g>
	<g>
		<path d="M110.789,116.445l-20.412-68.54c-1.915-6.43-7.828-10.838-14.538-10.838H15.169C6.792,37.067,0,43.858,0,52.235
			c0,8.377,6.792,15.169,15.169,15.169H64.53l20.315,68.211c0.061,0.225,0.127,0.448,0.199,0.668l24.007,80.606h113.917V116.445
			H110.789z"/>
	</g>
</g>
<g>
	<g>
		<path d="M466.494,405.494h-19.543c-6.581-22.564-27.437-39.102-52.097-39.102c-24.66,0-45.517,16.538-52.097,39.102h-80.482
			c-6.581-22.564-27.437-39.102-52.097-39.102c-24.66,0-45.517,16.538-52.097,39.102h-15.059c-15.942,0-28.911-12.97-28.911-28.912
			s12.97-28.911,28.911-28.911h16.287h63.657V247.226H118.085l20.925,70.258c-30.804,2.072-55.237,27.778-55.237,59.098
			c0,32.67,26.579,59.249,59.248,59.249h15.059c6.581,22.563,27.437,39.102,52.097,39.102c24.659,0,45.516-16.538,52.097-39.102
			h80.482c6.581,22.563,27.437,39.102,52.097,39.102c24.659,0,45.516-16.538,52.097-39.102h19.543
			c8.377,0,15.169-6.792,15.169-15.169S474.871,405.494,466.494,405.494z"/>
	</g>
</g>
<g>
</g>
<g>
</g>
<g>
</g>
<g>
</g>
<g>
</g>
<g>
</g>
<g>
</g>
<g>
</g>
<g>
</g>
<g>
</g>
<g>
</g>
<g>
</g>
<g>
</g>
<g>
</g>
<g>
</g>
</svg>
