<svg xmlns="http://www.w3.org/2000/svg" width="89" height="11" viewBox="0 0 89 11"><g><g><g><g><text dominant-baseline="text-before-edge" style="line-height:20px" fill="#d1d1d1" font-family="'Montserrat','Montserrat-Regular'" font-size="14" font-style="none" font-weight="400"><tspan style="font-kerning:normal">Read More</tspan></text></g></g><g><path d="M84.951 10.815l3.835-3.467a.462.462 0 0 0 0-.7l-.021-.011-3.814-3.46a.595.595 0 0 0-.777 0l-.004.007a.469.469 0 0 0-.167.354v6.917c0 .142.068.269.173.36h-.002a.594.594 0 0 0 .777 0z"/><path fill="#d1d1d1" d="M84.951 10.815l3.835-3.467a.462.462 0 0 0 0-.7l-.021-.011-3.814-3.46a.595.595 0 0 0-.777 0l-.004.007a.469.469 0 0 0-.167.354v6.917c0 .142.068.269.173.36h-.002a.594.594 0 0 0 .777 0z"/></g></g></g></svg>